<svg xmlns="http://www.w3.org/2000/svg" viewBox="0 0 1920 1080" width="1920" height="1080">
<defs>
  <linearGradient id="fondo" x1="0.1" y1="0" x2="0.7" y2="1">
    <stop offset="0" stop-color="#5d0c0a"/><stop offset="0.5" stop-color="#16161b"/><stop offset="1" stop-color="#0b0b0d"/>
  </linearGradient>
  <linearGradient id="banda" x1="0" y1="0" x2="1" y2="0">
    <stop offset="0" stop-color="#e10600"/><stop offset="1" stop-color="#8c0f0b"/>
  </linearGradient>
  <radialGradient id="halo"><stop offset="0" stop-color="#e10600" stop-opacity="0.42"/><stop offset="1" stop-color="#e10600" stop-opacity="0"/></radialGradient>
  <linearGradient id="sombra" x1="0" y1="0" x2="0" y2="1">
    <stop offset="0" stop-color="#0b0b0d" stop-opacity="0"/><stop offset="1" stop-color="#0b0b0d" stop-opacity="0.92"/>
  </linearGradient>
  
<pattern id="rayas" width="26" height="26" patternUnits="userSpaceOnUse" patternTransform="rotate(45)">
  <rect width="4" height="26" fill="rgba(255,255,255,0.05)"/>
</pattern>
<pattern id="puntos" width="18" height="18" patternUnits="userSpaceOnUse">
  <circle cx="3" cy="3" r="2.1" fill="rgba(255,255,255,0.09)"/>
</pattern>
</defs>
<rect width="1920" height="1080" fill="url(#fondo)"/>
<circle cx="1574.3999999999999" cy="151.20000000000002" r="768" fill="url(#halo)"/>
<rect width="1920" height="1080" fill="url(#puntos)"/>
<g opacity="0.16" transform="translate(648 -21.599999999999966) scale(7.776)"><circle cx="60" cy="17" r="8.5" fill="#ffffff"/><path d="M54 30 L44 48" fill="none" stroke="#ffffff" stroke-width="7" stroke-linecap="round" stroke-linejoin="round"/><path d="M55 33 L72 41" fill="none" stroke="#ffffff" stroke-width="7" stroke-linecap="round" stroke-linejoin="round"/><path d="M51 28 L33 21" fill="none" stroke="#ffffff" stroke-width="7" stroke-linecap="round" stroke-linejoin="round"/><path d="M44 48 L56 71" fill="none" stroke="#ffffff" stroke-width="7" stroke-linecap="round" stroke-linejoin="round"/><path d="M44 48 L25 55" fill="none" stroke="#ffffff" stroke-width="7" stroke-linecap="round" stroke-linejoin="round"/></g>
<g transform="rotate(-7 960 658.8000000000001)">
  <rect x="-480" y="658.8000000000001" width="2880" height="108" fill="url(#banda)" opacity="0.9"/>
  <rect x="-480" y="804.6000000000001" width="2880" height="19.439999999999998" fill="#e10600" opacity="0.7"/>
</g>
<rect width="1920" height="1080" fill="url(#rayas)"/>
<g opacity="0.9" transform="translate(115.19999999999999 64.8) scale(1.62)"><circle cx="60" cy="17" r="8.5" fill="#ffffff"/><path d="M54 30 L44 48" fill="none" stroke="#ffffff" stroke-width="7" stroke-linecap="round" stroke-linejoin="round"/><path d="M55 33 L72 41" fill="none" stroke="#ffffff" stroke-width="7" stroke-linecap="round" stroke-linejoin="round"/><path d="M51 28 L33 21" fill="none" stroke="#ffffff" stroke-width="7" stroke-linecap="round" stroke-linejoin="round"/><path d="M44 48 L56 71" fill="none" stroke="#ffffff" stroke-width="7" stroke-linecap="round" stroke-linejoin="round"/><path d="M44 48 L25 55" fill="none" stroke="#ffffff" stroke-width="7" stroke-linecap="round" stroke-linejoin="round"/></g>
<rect x="0" y="594" width="1920" height="486" fill="url(#sombra)"/>
</svg>